<svg width="27" height="24" viewBox="0 0 27 24" fill="none" xmlns="http://www.w3.org/2000/svg">
<g clip-path="url(#clip0_23_2051)">
<path d="M26.3099 9.03471C25.5324 5.67661 23.9096 2.91567 21.1088 0.865058C20.5085 0.434172 19.7787 -0.123949 19.009 0.0251434C18.1629 0.228097 17.6289 1.05006 17.0263 1.62613C16.1185 2.56206 15.2271 3.52374 14.32 4.45733C13.9758 4.81796 13.5714 5.28944 13.6425 5.79916C13.804 6.63517 14.8336 7.30492 15.3793 7.95047C16.846 9.38987 18.2542 10.9581 19.7732 12.3069C20.9012 13.182 20.6818 11.357 20.5296 10.6224C20.3142 9.54053 19.8817 8.51405 19.2947 7.58749C18.9645 7.02547 18.4095 6.59146 18.1949 5.97323C17.9841 5.18718 18.7741 4.36834 19.5102 4.25204C20.3087 4.20754 20.8434 5.06697 21.3172 5.61885C22.2133 6.75226 22.8612 8.06521 23.2094 9.47418C23.5146 10.6786 23.6114 11.9276 23.4982 13.1632C23.449 14.2381 22.6778 18.5696 20.9987 17.5626C20.3719 17.1442 19.9044 16.4956 19.3376 15.978C18.7374 15.3895 18.1035 14.8228 17.5033 14.2381C15.8531 12.6129 14.3091 10.8738 12.7245 9.19316C11.6723 8.08473 10.574 7.10119 9.58496 5.93342C8.72865 4.96549 7.77477 4.08265 6.90364 3.12799C6.31741 2.55894 5.68982 1.57539 4.78434 1.71122C3.39411 2.11868 2.51438 3.99132 1.83371 5.18016C0.138269 8.1058 -0.396435 11.6278 0.292045 14.9313C0.827529 17.5361 2.13267 19.9809 4.01624 21.8574C4.65008 22.4999 5.3487 23.0705 6.10197 23.5599C6.82402 24.0735 7.67174 24.2094 8.35865 23.5763C9.55608 22.4601 10.6583 21.2322 11.8096 20.0691C12.8572 19.0778 13.306 18.415 12.0836 17.3066C11.0205 16.3051 10.0439 15.2131 9.04479 14.1577C8.43125 13.5137 7.79975 12.869 7.1745 12.2367C6.89349 11.9791 6.31273 11.3484 6.05279 11.8519C5.90214 12.2148 5.96615 12.716 6.03796 13.2585C6.24014 14.6276 6.83182 15.9375 7.71701 16.9959C8.0675 17.4502 8.62484 17.839 8.70368 18.4322C8.72631 19.0614 8.14165 19.5734 7.6733 19.9185C7.06054 20.3696 6.326 19.9614 5.87326 19.4407C4.7094 18.2191 3.84217 16.654 3.37615 15.0343C2.95932 13.4989 2.86877 11.8269 3.12558 10.2602C3.3379 9.03627 3.73288 7.80606 4.41278 6.75148C4.78434 6.1996 5.30655 6.1715 5.7749 6.57585C6.87085 7.60154 7.89733 8.70374 8.95893 9.7708C11.7737 12.6153 14.5261 15.5206 17.3487 18.3596C18.365 19.3861 19.3501 20.4454 20.3641 21.4703C20.6842 21.7997 21.1057 22.1986 21.5288 22.2555C22.2594 22.3586 22.8378 21.6108 23.289 21.1112C26.1366 17.8647 27.2083 13.2514 26.3138 9.04954L26.3106 9.03471H26.3099ZM6.4025 3.32157C6.39313 3.31611 6.37908 3.31377 6.38454 3.29972C6.39781 3.29815 6.41265 3.31377 6.4064 3.32001H6.4025V3.32157ZM3.69932 6.96458H3.69854C3.69854 6.96458 3.69854 6.96458 3.69932 6.96458ZM26.3778 12.9174C26.3715 12.9189 26.3911 12.9174 26.3879 12.922C26.3918 12.9244 26.3731 12.922 26.3786 12.9181L26.3778 12.9174ZM26.459 12.9174C26.459 12.9174 26.459 12.9197 26.459 12.9205C26.4566 12.9189 26.4543 12.9189 26.4512 12.9174C26.4535 12.9174 26.4558 12.9174 26.4582 12.9174H26.459ZM18.4392 6.89277C18.422 6.88574 18.4267 6.87716 18.4392 6.88887V6.89277ZM3.20286 14.7931C3.20286 14.7931 3.20052 14.7892 3.20286 14.7923V14.7931Z" fill="url(#paint0_linear_23_2051)"/>
</g>
<defs>
<linearGradient id="paint0_linear_23_2051" x1="13.3106" y1="0.000488281" x2="13.3106" y2="24" gradientUnits="userSpaceOnUse">
<stop stop-color="#C3C0D8"/>
<stop offset="1" stop-color="#7361E5"/>
</linearGradient>
<clipPath id="clip0_23_2051">
<rect width="26.6212" height="24" fill="white"/>
</clipPath>
</defs>
</svg>
